<?xml version="1.0" encoding="UTF-8"?>
<svg width="40px" height="40px" viewBox="0 0 40 40" version="1.1" xmlns="http://www.w3.org/2000/svg" xmlns:xlink="http://www.w3.org/1999/xlink">
    <!-- Generator: Sketch 48.2 (47327) - http://www.bohemiancoding.com/sketch -->
    <title>Combined Shape</title>
    <desc>Created with Sketch.</desc>
    <defs></defs>
    <g id="Article---End" stroke="none" stroke-width="1" fill="none" fill-rule="evenodd" transform="translate(-807.000000, -854.000000)">
        <path d="M807,874 C807,862.954304 815.954304,854 827,854 C838.045696,854 847,862.954304 847,874 C847,885.045696 838.045696,894 827,894 C815.954304,894 807,885.045696 807,874 Z M818.46346,868 C818.273094,868 818.096485,868.03811 817.929949,868.105325 L826.527489,875.7489 C826.824635,876.013091 827.199024,876.012826 827.495462,875.7489 L836.077758,868.105325 C835.911198,868.03811 835.726979,868 835.536589,868 L818.46346,868 Z M817.022927,869.248852 C817.009512,869.33056 817,869.411401 817,869.49713 L817,879.502991 C817,879.720116 817.056927,879.918898 817.137219,880.104847 L823.028961,874.590327 L817.022878,869.248852 L817.022927,869.248852 Z M836.984781,869.256315 L830.993917,874.582743 L836.878049,880.104775 C836.95761,879.919548 837,879.718985 837,879.502919 L837,869.497057 C837,869.414001 836.997317,869.335615 836.984878,869.256315 L836.984781,869.256315 Z M829.903993,875.553224 L828.478704,876.824634 C827.650779,877.561691 826.372148,877.560608 825.544247,876.824634 L824.118958,875.560736 L818.318655,880.992537 C818.367972,880.997593 818.412801,881 818.46346,881 L835.536589,881 C835.589881,881 835.644906,880.997593 835.696662,880.992537 L829.903993,875.553224 Z" id="Combined-Shape" fill="#FFFFFF"></path>
    </g>
</svg>