<svg xmlns="http://www.w3.org/2000/svg" width="40" height="40" viewBox="0 0 40 40">
    <g fill="none" fill-rule="evenodd">
        <path fill="#1B1B1B" d="M0 20C0 8.954 8.954 0 20 0s20 8.954 20 20-8.954 20-20 20S0 31.046 0 20z"/>
        <path fill="#FFF" fill-rule="nonzero" d="M11.463 14c-.19 0-.367.038-.533.105l8.597 7.644c.298.264.672.264.968 0l8.583-7.644a1.45 1.45 0 0 0-.541-.105H11.463zm-1.44 1.249a1.512 1.512 0 0 0-.023.248v10.006c0 .217.057.416.137.602l5.892-5.515-6.006-5.341zm19.962.007l-5.991 5.327 5.884 5.522a1.51 1.51 0 0 0 .122-.602V15.497c0-.083-.003-.161-.015-.24zm-7.081 6.297l-1.425 1.272a2.225 2.225 0 0 1-2.935 0L17.12 21.56l-5.8 5.432c.049.005.094.007.144.007h17.074c.053 0 .108-.002.16-.007l-5.793-5.44z"/>
    </g>
</svg>
